<svg version="1.1" viewBox="0.0 0.0 960.0 350.0" fill="none" stroke="none" stroke-linecap="square" stroke-miterlimit="10" xmlns:xlink="http://www.w3.org/1999/xlink" xmlns="http://www.w3.org/2000/svg"><clipPath id="g10a9ec76abd_0_0.0"><path d="m0 0l960.0 0l0 350.0l-960.0 0l0 -350.0z" clip-rule="nonzero"/></clipPath><g clip-path="url(#g10a9ec76abd_0_0.0)"><path fill="#000000" fill-opacity="0.0" d="m0 0l960.0 0l0 350.0l-960.0 0z" fill-rule="evenodd"/><path fill="#1a1a1a" fill-opacity="0.3765" d="m122.29472 122.78379l62.436478 -87.84839l104.69229 0l-62.436478 87.84839z" fill-rule="evenodd"/><path fill="#1a1a1a" fill-opacity="0.2549" d="m61.106663 210.63219l62.43649 -87.8484l76.00319 0l-62.436493 87.8484z" fill-rule="evenodd"/><path fill="#000000" fill-opacity="0.0" d="m234.44763 134.0328l505.48035 0l0 67.87402l-505.48035 0z" fill-rule="evenodd"/><path fill="#1a1a1a" d="m270.5274 176.5578l-10.640625 0l-1.875 4.875l-9.60939 0l12.250015 -28.0l9.28125 0l12.234375 28.0l-9.765625 0l-1.875 -4.875zm-2.59375 -6.8125l-2.71875 -7.03125l-2.734375 7.03125l5.453125 0zm26.193085 12.328125q-3.484375 0 -6.78125 -0.78125q-3.296875 -0.78125 -5.421875 -2.09375l3.046875 -6.890625q2.0 1.171875 4.46875 1.875q2.484375 0.6875 4.765625 0.6875q1.96875 0 2.796875 -0.375q0.84375 -0.375 0.84375 -1.140625q0 -0.875 -1.109375 -1.3125q-1.09375 -0.453125 -3.609375 -0.96875q-3.234375 -0.6875 -5.40625 -1.453125q-2.15625 -0.78125 -3.765625 -2.5625q-1.59375 -1.78125 -1.59375 -4.828125q0 -2.640625 1.484375 -4.796875q1.484375 -2.15625 4.421875 -3.390625q2.9375 -1.25 7.140625 -1.25q2.875 0 5.65625 0.625q2.78125 0.609375 4.90625 1.8125l-2.84375 6.84375q-4.125 -2.078125 -7.796875 -2.078125q-3.640625 0 -3.640625 1.75q0 0.84375 1.078125 1.265625q1.078125 0.421875 3.5625 0.90625q3.203125 0.59375 5.390625 1.375q2.203125 0.78125 3.828125 2.546875q1.625 1.75 1.625 4.796875q0 2.640625 -1.484375 4.78125q-1.484375 2.140625 -4.421875 3.40625q-2.9375 1.25 -7.140625 1.25zm30.326843 0q-4.453125 0 -8.015625 -1.859375q-3.546875 -1.859375 -5.578125 -5.203125q-2.015625 -3.34375 -2.015625 -7.578125q0 -4.234375 2.015625 -7.578125q2.03125 -3.34375 5.578125 -5.203125q3.5625 -1.859375 8.015625 -1.859375q4.078125 0 7.265625 1.4375q3.203125 1.4375 5.28125 4.15625l-5.953125 5.328125q-2.59375 -3.28125 -6.125 -3.28125q-2.953125 0 -4.75 1.90625q-1.796875 1.890625 -1.796875 5.09375q0 3.203125 1.796875 5.109375q1.796875 1.890625 4.75 1.890625q3.53125 0 6.125 -3.28125l5.953125 5.328125q-2.078125 2.71875 -5.28125 4.15625q-3.1875 1.4375 -7.265625 1.4375zm38.556854 -7.765625l0 7.125l-23.28125 0l0 -28.0l22.765625 0l0 7.125l-13.484375 0l0 3.28125l11.84375 0l0 6.796875l-11.84375 0l0 3.671875l14.0 0zm31.232483 -20.875l0 28.0l-7.75 0l-10.640625 -12.71875l0 12.71875l-9.203125 0l0 -28.0l7.765625 0l10.640625 12.71875l0 -12.71875l9.1875 0zm4.566223 0l13.796875 0q4.6875 0 8.265625 1.703125q3.578125 1.703125 5.546875 4.859375q1.984375 3.15625 1.984375 7.4375q0 4.28125 -1.984375 7.4375q-1.96875 3.15625 -5.546875 4.859375q-3.578125 1.703125 -8.265625 1.703125l-13.796875 0l0 -28.0zm13.40625 20.640625q3.03125 0 4.84375 -1.734375q1.828125 -1.75 1.828125 -4.90625q0 -3.15625 -1.828125 -4.890625q-1.8125 -1.75 -4.84375 -1.75l-3.96875 0l0 13.28125l3.96875 0zm33.039948 8.0q-6.453125 0 -10.046875 -3.46875q-3.59375 -3.484375 -3.59375 -9.765625l0 -15.40625l9.4375 0l0 15.125q0 3.078125 1.09375 4.484375q1.109375 1.390625 3.1875 1.390625q2.078125 0 3.171875 -1.390625q1.109375 -1.40625 1.109375 -4.484375l0 -15.125l9.265625 0l0 15.40625q0 6.28125 -3.59375 9.765625q-3.59375 3.46875 -10.03125 3.46875zm28.391235 0q-3.484375 0 -6.78125 -0.78125q-3.296875 -0.78125 -5.421875 -2.09375l3.046875 -6.890625q2.0 1.171875 4.46875 1.875q2.484375 0.6875 4.765625 0.6875q1.96875 0 2.796875 -0.375q0.84375 -0.375 0.84375 -1.140625q0 -0.875 -1.109375 -1.3125q-1.09375 -0.453125 -3.609375 -0.96875q-3.234375 -0.6875 -5.40625 -1.453125q-2.15625 -0.78125 -3.765625 -2.5625q-1.59375 -1.78125 -1.59375 -4.828125q0 -2.640625 1.484375 -4.796875q1.484375 -2.15625 4.421875 -3.390625q2.9375 -1.25 7.140625 -1.25q2.875 0 5.65625 0.625q2.78125 0.609375 4.90625 1.8125l-2.84375 6.84375q-4.125 -2.078125 -7.796875 -2.078125q-3.640625 0 -3.640625 1.75q0 0.84375 1.078125 1.265625q1.078125 0.421875 3.5625 0.90625q3.203125 0.59375 5.390625 1.375q2.203125 0.78125 3.828125 2.546875q1.625 1.75 1.625 4.796875q0 2.640625 -1.484375 4.78125q-1.484375 2.140625 -4.421875 3.40625q-2.9375 1.25 -7.140625 1.25zm20.439331 -0.234375q-2.28125 0 -3.78125 -1.453125q-1.5 -1.46875 -1.5 -3.75q0 -2.28125 1.5 -3.703125q1.5 -1.421875 3.78125 -1.421875q2.28125 0 3.78125 1.421875q1.5 1.421875 1.5 3.703125q0 2.28125 -1.5 3.75q-1.5 1.453125 -3.78125 1.453125zm26.078766 -15.171875l8.203125 0l0 11.84375q-2.484375 1.71875 -5.765625 2.640625q-3.28125 0.921875 -6.4375 0.921875q-4.4844055 0 -8.0469055 -1.859375q-3.546875 -1.859375 -5.578125 -5.203125q-2.015625 -3.34375 -2.015625 -7.578125q0 -4.234375 2.015625 -7.578125q2.03125 -3.34375 5.640625 -5.203125q3.625 -1.859375 8.1875305 -1.859375q4.125 0 7.375 1.390625q3.265625 1.375 5.421875 4.015625l-6.03125 5.3125q-2.640625 -3.078125 -6.28125 -3.078125q-3.125 0 -4.9687805 1.890625q-1.828125 1.875 -1.828125 5.109375q0 3.15625 1.8125 5.078125q1.8125305 1.921875 4.8594055 1.921875q1.796875 0 3.4375 -0.6875l0 -7.078125zm12.244324 -13.234375l9.4375 0l0 28.0l-9.4375 0l0 -28.0zm20.078125 7.3125l-8.203125 0l0 -7.3125l25.84375 0l0 7.3125l-8.203125 0l0 20.6875l-9.4375 0l0 -20.6875zm47.6756 -7.3125l0 28.0l-9.4375 0l0 -10.3125l-8.71875 0l0 10.3125l-9.4375 0l0 -28.0l9.4375 0l0 9.921875l8.71875 0l0 -9.921875l9.4375 0zm17.972473 28.640625q-6.453125 0 -10.046875 -3.46875q-3.59375 -3.484375 -3.59375 -9.765625l0 -15.40625l9.4375 0l0 15.125q0 3.078125 1.09375 4.484375q1.109375 1.390625 3.1875 1.390625q2.078125 0 3.171875 -1.390625q1.109375 -1.40625 1.109375 -4.484375l0 -15.125l9.265625 0l0 15.40625q0 6.28125 -3.59375 9.765625q-3.59375 3.46875 -10.03125 3.46875zm40.359985 -15.28125q2.46875 0.921875 3.828125 2.6875q1.359375 1.75 1.359375 4.234375q0 3.671875 -3.046875 5.703125q-3.03125 2.015625 -8.78125 2.015625l-15.765625 0l0 -28.0l14.953125 0q5.609375 0 8.46875 2.0q2.859375 2.0 2.859375 5.3125q0 1.96875 -0.984375 3.53125q-0.984375 1.5625 -2.890625 2.515625zm-13.125 -6.765625l0 4.171875l4.390625 0q3.09375 0 3.09375 -2.078125q0 -2.09375 -3.09375 -2.09375l-4.390625 0zm5.671875 14.8125q3.125 0 3.125 -2.203125q0 -2.203125 -3.125 -2.203125l-5.671875 0l0 4.40625l5.671875 0zm20.163696 7.0q-2.28125 0 -3.78125 -1.453125q-1.5 -1.46875 -1.5 -3.75q0 -2.28125 1.5 -3.703125q1.5 -1.421875 3.78125 -1.421875q2.28125 0 3.78125 1.421875q1.5 1.421875 1.5 3.703125q0 2.28125 -1.5 3.75q-1.5 1.453125 -3.78125 1.453125zm8.363098 -28.40625l9.4375 0l0 28.0l-9.4375 0l0 -28.0zm28.671875 28.640625q-4.515625 0 -8.125 -1.875q-3.59375 -1.890625 -5.640625 -5.21875q-2.03125 -3.34375 -2.03125 -7.546875q0 -4.203125 2.03125 -7.53125q2.046875 -3.34375 5.640625 -5.21875q3.609375 -1.890625 8.125 -1.890625q4.53125 0 8.125 1.890625q3.609375 1.875 5.640625 5.21875q2.046875 3.328125 2.046875 7.53125q0 4.203125 -2.046875 7.546875q-2.03125 3.328125 -5.640625 5.21875q-3.59375 1.875 -8.125 1.875zm0 -7.640625q1.765625 0 3.1875 -0.859375q1.421875 -0.859375 2.25 -2.4375q0.84375 -1.578125 0.84375 -3.703125q0 -2.125 -0.84375 -3.703125q-0.828125 -1.578125 -2.25 -2.4375q-1.421875 -0.859375 -3.1875 -0.859375q-1.75 0 -3.171875 0.859375q-1.421875 0.859375 -2.265625 2.4375q-0.828125 1.578125 -0.828125 3.703125q0 2.125 0.828125 3.703125q0.84375 1.578125 2.265625 2.4375q1.421875 0.859375 3.171875 0.859375z" fill-rule="nonzero"/><path fill="#1a1a1a" fill-opacity="0.3765" d="m837.70526 227.21686l-62.436462 87.84839l-104.69232 0l62.436462 -87.84839z" fill-rule="evenodd"/><path fill="#1a1a1a" fill-opacity="0.2549" d="m898.8933 139.36847l-62.436462 87.84839l-76.003174 0l62.436462 -87.84839z" fill-rule="evenodd"/><path fill="#000000" fill-opacity="0.0" d="m234.44763 193.90683l505.48035 0l0 35.55905l-505.48035 0z" fill-rule="evenodd"/><path fill="#1a1a1a" d="m305.41425 214.08182l-3.546875 0l-0.625 1.625l-3.203125 0l4.078125 -9.328125l3.09375 0l4.078125 9.328125l-3.25 0l-0.625 -1.625zm-0.875 -2.265625l-0.90625 -2.34375l-0.90625 2.34375l1.8125 0zm13.740845 -5.4375q1.296875 0 2.25 0.421875q0.96875 0.421875 1.484375 1.234375q0.515625 0.796875 0.515625 1.859375q0 1.0625 -0.515625 1.875q-0.515625 0.796875 -1.484375 1.21875q-0.953125 0.421875 -2.25 0.421875l-1.34375 0l0 2.296875l-3.140625 0l0 -9.328125l4.484375 0zm-0.203125 4.609375q0.640625 0 0.953125 -0.28125q0.328125 -0.296875 0.328125 -0.8125q0 -0.515625 -0.328125 -0.796875q-0.3125 -0.296875 -0.953125 -0.296875l-1.140625 0l0 2.1875l1.140625 0zm10.512146 4.9375q-1.515625 0 -2.71875 -0.625q-1.1875 -0.640625 -1.875 -1.75q-0.671875 -1.109375 -0.671875 -2.515625q0 -1.390625 0.671875 -2.5q0.6875 -1.125 1.875 -1.75q1.203125 -0.625 2.71875 -0.625q1.5 0 2.703125 0.625q1.203125 0.625 1.875 1.75q0.6875 1.109375 0.6875 2.5q0 1.40625 -0.6875 2.515625q-0.671875 1.109375 -1.875 1.75q-1.203125 0.625 -2.703125 0.625zm0 -2.546875q0.578125 0 1.046875 -0.28125q0.484375 -0.296875 0.765625 -0.8125q0.28125 -0.53125 0.28125 -1.25q0 -0.703125 -0.28125 -1.21875q-0.28125 -0.53125 -0.765625 -0.8125q-0.46875 -0.296875 -1.046875 -0.296875q-0.59375 0 -1.0625 0.296875q-0.46875 0.28125 -0.75 0.8125q-0.28125 0.515625 -0.28125 1.21875q0 0.71875 0.28125 1.25q0.28125 0.515625 0.75 0.8125q0.46875 0.28125 1.0625 0.28125zm10.411591 -0.015625l-0.859375 0l0 2.34375l-3.140625 0l0 -9.328125l4.484375 0q1.296875 0 2.25 0.421875q0.96875 0.421875 1.484375 1.234375q0.515625 0.796875 0.515625 1.859375q0 1.0 -0.453125 1.75q-0.453125 0.75 -1.296875 1.1875l1.953125 2.875l-3.359375 0l-1.578125 -2.34375zm1.5625 -3.46875q0 -0.515625 -0.328125 -0.796875q-0.3125 -0.296875 -0.953125 -0.296875l-1.140625 0l0 2.1875l1.140625 0q0.640625 0 0.953125 -0.28125q0.328125 -0.296875 0.328125 -0.8125zm6.2492065 -1.078125l-2.734375 0l0 -2.4375l8.609375 0l0 2.4375l-2.71875 0l0 6.890625l-3.15625 0l0 -6.890625zm9.841553 -0.0625l0 1.59375l3.890625 0l0 2.375l-3.890625 0l0 2.984375l-3.140625 0l0 -9.328125l7.578125 0l0 2.375l-4.4375 0zm10.266632 7.171875q-1.515625 0 -2.71875 -0.625q-1.1875 -0.640625 -1.875 -1.75q-0.671875 -1.109375 -0.671875 -2.515625q0 -1.390625 0.671875 -2.5q0.6875 -1.125 1.875 -1.75q1.203125 -0.625 2.71875 -0.625q1.5 0 2.703125 0.625q1.203125 0.625 1.875 1.75q0.6875 1.109375 0.6875 2.5q0 1.40625 -0.6875 2.515625q-0.671875 1.109375 -1.875 1.75q-1.203125 0.625 -2.703125 0.625zm0 -2.546875q0.578125 0 1.046875 -0.28125q0.484375 -0.296875 0.765625 -0.8125q0.28125 -0.53125 0.28125 -1.25q0 -0.703125 -0.28125 -1.21875q-0.28125 -0.53125 -0.765625 -0.8125q-0.46875 -0.296875 -1.046875 -0.296875q-0.59375 0 -1.0625 0.296875q-0.46875 0.28125 -0.75 0.8125q-0.28125 0.515625 -0.28125 1.21875q0 0.71875 0.28125 1.25q0.28125 0.515625 0.75 0.8125q0.46875 0.28125 1.0625 0.28125zm6.4115906 -7.0l3.140625 0l0 6.890625l4.203125 0l0 2.4375l-7.34375 0l0 -9.328125zm8.223419 0l3.140625 0l0 9.328125l-3.140625 0l0 -9.328125zm9.55545 9.546875q-1.515625 0 -2.71875 -0.625q-1.1875 -0.640625 -1.875 -1.75q-0.671875 -1.109375 -0.671875 -2.515625q0 -1.390625 0.671875 -2.5q0.6875 -1.125 1.875 -1.75q1.203125 -0.625 2.71875 -0.625q1.5 0 2.703125 0.625q1.203125 0.625 1.875 1.75q0.6875 1.109375 0.6875 2.5q0 1.40625 -0.6875 2.515625q-0.671875 1.109375 -1.875 1.75q-1.203125 0.625 -2.703125 0.625zm0 -2.546875q0.578125 0 1.046875 -0.28125q0.484375 -0.296875 0.765625 -0.8125q0.28125 -0.53125 0.28125 -1.25q0 -0.703125 -0.28125 -1.21875q-0.28125 -0.53125 -0.765625 -0.8125q-0.46875 -0.296875 -1.046875 -0.296875q-0.59375 0 -1.0625 0.296875q-0.46875 0.28125 -0.75 0.8125q-0.28125 0.515625 -0.28125 1.21875q0 0.71875 0.28125 1.25q0.28125 0.515625 0.75 0.8125q0.46875 0.28125 1.0625 0.28125zm25.581879 -7.0l-2.984375 9.328125l-3.375 0l-1.5 -4.984375l-1.59375 4.984375l-3.359375 0l-2.984375 -9.328125l3.234375 0l1.625 5.296875l1.71875 -5.296875l2.890625 0l1.625 5.375l1.71875 -5.375l2.984375 0zm4.701782 6.984375l-0.859375 0l0 2.34375l-3.140625 0l0 -9.328125l4.484375 0q1.296875 0 2.25 0.421875q0.96875 0.421875 1.484375 1.234375q0.515625 0.796875 0.515625 1.859375q0 1.0 -0.453125 1.75q-0.453125 0.75 -1.296875 1.1875l1.953125 2.875l-3.359375 0l-1.578125 -2.34375zm1.5625 -3.46875q0 -0.515625 -0.328125 -0.796875q-0.3125 -0.296875 -0.953125 -0.296875l-1.140625 0l0 2.1875l1.140625 0q0.640625 0 0.953125 -0.28125q0.328125 -0.296875 0.328125 -0.8125zm4.366913 -3.515625l3.140625 0l0 9.328125l-3.140625 0l0 -9.328125zm6.6804504 2.4375l-2.734375 0l0 -2.4375l8.609375 0l0 2.4375l-2.71875 0l0 6.890625l-3.15625 0l0 -6.890625zm8.849915 0l-2.734375 0l0 -2.4375l8.609375 0l0 2.4375l-2.71875 0l0 6.890625l-3.15625 0l0 -6.890625zm14.450928 4.515625l0 2.375l-7.75 0l0 -9.328125l7.578125 0l0 2.375l-4.484375 0l0 1.09375l3.9375 0l0 2.265625l-3.9375 0l0 1.21875l4.65625 0zm10.407288 -6.953125l0 9.328125l-2.578125 0l-3.546875 -4.234375l0 4.234375l-3.0625 0l0 -9.328125l2.578125 0l3.546875 4.234375l0 -4.234375l3.0625 0zm5.526703 0l3.140625 0l0 9.328125l-3.140625 0l0 -9.328125zm13.852325 0l0 9.328125l-2.578125 0l-3.546875 -4.234375l0 4.234375l-3.0625 0l0 -9.328125l2.578125 0l3.546875 4.234375l0 -4.234375l3.0625 0zm7.542328 2.4375l-2.734375 0l0 -2.4375l8.609375 0l0 2.4375l-2.71875 0l0 6.890625l-3.15625 0l0 -6.890625zm10.169708 7.109375q-1.15625 0 -2.265625 -0.265625q-1.09375 -0.265625 -1.796875 -0.703125l1.015625 -2.28125q0.671875 0.375 1.484375 0.609375q0.828125 0.234375 1.59375 0.234375q0.65625 0 0.9375 -0.125q0.28125 -0.125 0.28125 -0.375q0 -0.296875 -0.375 -0.4375q-0.359375 -0.15625 -1.203125 -0.328125q-1.078125 -0.21875 -1.796875 -0.484375q-0.71875 -0.265625 -1.265625 -0.859375q-0.53125 -0.59375 -0.53125 -1.59375q0 -0.890625 0.5 -1.609375q0.5 -0.71875 1.46875 -1.125q0.984375 -0.421875 2.390625 -0.421875q0.953125 0 1.875 0.21875q0.9375 0.203125 1.640625 0.59375l-0.953125 2.28125q-1.375 -0.6875 -2.59375 -0.6875q-1.21875 0 -1.21875 0.578125q0 0.28125 0.359375 0.421875q0.359375 0.140625 1.1875 0.296875q1.0625 0.203125 1.796875 0.46875q0.734375 0.25 1.265625 0.84375q0.546875 0.59375 0.546875 1.59375q0 0.890625 -0.5 1.609375q-0.484375 0.703125 -1.46875 1.125q-0.96875 0.421875 -2.375 0.421875zm11.045105 -0.21875l-1.609375 -2.5l-1.5625 2.5l-3.5937805 0l3.3750305 -4.703125l-3.2500305 -4.625l3.5312805 0l1.578125 2.34375l1.546875 -2.34375l3.390625 0l-3.234375 4.5l3.4375 4.828125l-3.609375 0zm17.451294 -4.5q-0.265625 1.171875 -0.875 2.09375l0.875 0.75l-1.609375 1.828125l-0.984375 -0.859375q-1.390625 0.90625 -3.125 0.90625q-1.109375 0 -2.0 -0.359375q-0.875 -0.359375 -1.390625 -0.96875q-0.5 -0.609375 -0.5 -1.390625q0 -0.875 0.4375 -1.515625q0.4375 -0.65625 1.375 -1.171875q-0.796875 -0.84375 -0.796875 -1.78125q0 -0.75 0.421875 -1.3125q0.421875 -0.5625 1.171875 -0.875q0.765625 -0.328125 1.765625 -0.328125q0.921875 0 1.609375 0.28125q0.703125 0.28125 1.09375 0.828125q0.390625 0.53125 0.390625 1.25q0 0.703125 -0.390625 1.265625q-0.390625 0.546875 -1.21875 1.015625l0.984375 0.828125q0.234375 -0.53125 0.359375 -1.203125l2.40625 0.71875zm-5.21875 -3.046875q-0.3125 0 -0.484375 0.15625q-0.15625 0.140625 -0.15625 0.375q0 0.171875 0.09375 0.34375q0.109375 0.15625 0.375 0.40625q0.734375 -0.390625 0.734375 -0.796875q0 -0.21875 -0.15625 -0.34375q-0.140625 -0.140625 -0.40625 -0.140625zm-0.265625 5.515625q0.53125 0 1.046875 -0.21875l-1.703125 -1.46875q-0.515625 0.375 -0.515625 0.890625q0 0.34375 0.3125 0.578125q0.3125 0.21875 0.859375 0.21875zm14.119934 2.25q-1.15625 0 -2.265625 -0.265625q-1.09375 -0.265625 -1.796875 -0.703125l1.015625 -2.28125q0.671875 0.375 1.484375 0.609375q0.828125 0.234375 1.59375 0.234375q0.65625 0 0.9375 -0.125q0.28125 -0.125 0.28125 -0.375q0 -0.296875 -0.375 -0.4375q-0.359375 -0.15625 -1.203125 -0.328125q-1.078125 -0.21875 -1.796875 -0.484375q-0.71875 -0.265625 -1.265625 -0.859375q-0.53125 -0.59375 -0.53125 -1.59375q0 -0.890625 0.5 -1.609375q0.5 -0.71875 1.46875 -1.125q0.984375 -0.421875 2.390625 -0.421875q0.953125 0 1.875 0.21875q0.9375 0.203125 1.640625 0.59375l-0.953125 2.28125q-1.375 -0.6875 -2.59375 -0.6875q-1.21875 0 -1.21875 0.578125q0 0.28125 0.359375 0.421875q0.359375 0.140625 1.1875 0.296875q1.0625 0.203125 1.796875 0.46875q0.734375 0.25 1.265625 0.84375q0.546875 0.59375 0.546875 1.59375q0 0.890625 -0.5 1.609375q-0.484375 0.703125 -1.46875 1.125q-0.96875 0.421875 -2.375 0.421875zm10.100281 0q-1.46875 0 -2.65625 -0.625q-1.1875 -0.625 -1.859375 -1.734375q-0.671875 -1.109375 -0.671875 -2.53125q0 -1.40625 0.671875 -2.515625q0.671875 -1.109375 1.859375 -1.734375q1.1875 -0.625 2.65625 -0.625q1.359375 0 2.421875 0.484375q1.078125 0.484375 1.765625 1.390625l-1.984375 1.765625q-0.859375 -1.09375 -2.03125 -1.09375q-0.984375 0 -1.59375 0.640625q-0.59375 0.625 -0.59375 1.6875q0 1.078125 0.59375 1.71875q0.609375 0.625 1.59375 0.625q1.171875 0 2.03125 -1.09375l1.984375 1.765625q-0.6875 0.90625 -1.765625 1.390625q-1.0625 0.484375 -2.421875 0.484375zm8.439026 0q-1.15625 0 -2.265625 -0.265625q-1.09375 -0.265625 -1.796875 -0.703125l1.015625 -2.28125q0.671875 0.375 1.484375 0.609375q0.828125 0.234375 1.59375 0.234375q0.65625 0 0.9375 -0.125q0.28125 -0.125 0.28125 -0.375q0 -0.296875 -0.375 -0.4375q-0.359375 -0.15625 -1.203125 -0.328125q-1.078125 -0.21875 -1.796875 -0.484375q-0.71875 -0.265625 -1.265625 -0.859375q-0.53125 -0.59375 -0.53125 -1.59375q0 -0.890625 0.5 -1.609375q0.5 -0.71875 1.46875 -1.125q0.984375 -0.421875 2.390625 -0.421875q0.953125 0 1.875 0.21875q0.9375 0.203125 1.640625 0.59375l-0.953125 2.28125q-1.375 -0.6875 -2.59375 -0.6875q-1.21875 0 -1.21875 0.578125q0 0.28125 0.359375 0.421875q0.359375 0.140625 1.1875 0.296875q1.0625 0.203125 1.796875 0.46875q0.734375 0.25 1.265625 0.84375q0.546875 0.59375 0.546875 1.59375q0 0.890625 -0.5 1.609375q-0.484375 0.703125 -1.46875 1.125q-0.96875 0.421875 -2.375 0.421875zm8.756531 0q-1.15625 0 -2.265625 -0.265625q-1.09375 -0.265625 -1.796875 -0.703125l1.015625 -2.28125q0.671875 0.375 1.484375 0.609375q0.828125 0.234375 1.59375 0.234375q0.65625 0 0.9375 -0.125q0.28125 -0.125 0.28125 -0.375q0 -0.296875 -0.375 -0.4375q-0.359375 -0.15625 -1.203125 -0.328125q-1.078125 -0.21875 -1.796875 -0.484375q-0.71875 -0.265625 -1.265625 -0.859375q-0.53125 -0.59375 -0.53125 -1.59375q0 -0.890625 0.5 -1.609375q0.5 -0.71875 1.46875 -1.125q0.984375 -0.421875 2.390625 -0.421875q0.953125 0 1.875 0.21875q0.9375 0.203125 1.640625 0.59375l-0.953125 2.28125q-1.375 -0.6875 -2.59375 -0.6875q-1.21875 0 -1.21875 0.578125q0 0.28125 0.359375 0.421875q0.359375 0.140625 1.1875 0.296875q1.0625 0.203125 1.796875 0.46875q0.734375 0.25 1.265625 0.84375q0.546875 0.59375 0.546875 1.59375q0 0.890625 -0.5 1.609375q-0.484375 0.703125 -1.46875 1.125q-0.96875 0.421875 -2.375 0.421875zm24.458069 -9.546875l-2.984375 9.328125l-3.375 0l-1.5 -4.984375l-1.59375 4.984375l-3.359375 0l-2.984375 -9.328125l3.234375 0l1.625 5.296875l1.71875 -5.296875l2.890625 0l1.625 5.375l1.71875 -5.375l2.984375 0zm0.7017822 0l3.140625 0l0 9.328125l-3.140625 0l0 -9.328125zm6.68042 2.4375l-2.734375 0l0 -2.4375l8.609375 0l0 2.4375l-2.71875 0l0 6.890625l-3.15625 0l0 -6.890625zm15.888489 -2.4375l0 9.328125l-3.140625 0l0 -3.4375l-2.90625 0l0 3.4375l-3.140625 0l0 -9.328125l3.140625 0l0 3.296875l2.90625 0l0 -3.296875l3.140625 0zm14.714172 0l0 9.328125l-2.578125 0l-3.546875 -4.234375l0 4.234375l-3.0625 0l0 -9.328125l2.578125 0l3.546875 4.234375l0 -4.234375l3.0625 0zm9.278259 6.953125l0 2.375l-7.75 0l0 -9.328125l7.578125 0l0 2.375l-4.484375 0l0 1.09375l3.9375 0l0 2.265625l-3.9375 0l0 1.21875l4.65625 0zm7.043762 2.375l-1.609375 -2.5l-1.5625 2.5l-3.59375 0l3.375 -4.703125l-3.25 -4.625l3.53125 0l1.578125 2.34375l1.546875 -2.34375l3.390625 0l-3.234375 4.5l3.4375 4.828125l-3.609375 0zm5.8809814 -6.890625l-2.734375 0l0 -2.4375l8.609375 0l0 2.4375l-2.71875 0l0 6.890625l-3.15625 0l0 -6.890625zm8.927002 7.109375q-1.09375 0 -1.984375 -0.359375q-0.890625 -0.359375 -1.453125 -1.03125l1.6875 -2.0q0.375 0.46875 0.734375 0.703125q0.359375 0.21875 0.75 0.21875q0.484375 0 0.734375 -0.296875q0.265625 -0.296875 0.265625 -0.859375l0 -3.546875l-3.171875 0l0 -2.375l6.28125 0l0 5.734375q0 1.90625 -0.984375 2.859375q-0.96875 0.953125 -2.859375 0.953125zm8.759705 0q-1.15625 0 -2.265625 -0.265625q-1.09375 -0.265625 -1.796875 -0.703125l1.015625 -2.28125q0.671875 0.375 1.484375 0.609375q0.828125 0.234375 1.59375 0.234375q0.65625 0 0.9375 -0.125q0.28125 -0.125 0.28125 -0.375q0 -0.296875 -0.375 -0.4375q-0.359375 -0.15625 -1.203125 -0.328125q-1.078125 -0.21875 -1.796875 -0.484375q-0.71875 -0.265625 -1.265625 -0.859375q-0.53125 -0.59375 -0.53125 -1.59375q0 -0.890625 0.5 -1.609375q0.5 -0.71875 1.46875 -1.125q0.984375 -0.421875 2.390625 -0.421875q0.953125 0 1.875 0.21875q0.9375 0.203125 1.640625 0.59375l-0.953125 2.28125q-1.375 -0.6875 -2.59375 -0.6875q-1.21875 0 -1.21875 0.578125q0 0.28125 0.359375 0.421875q0.359375 0.140625 1.1875 0.296875q1.0625 0.203125 1.796875 0.46875q0.734375 0.25 1.265625 0.84375q0.546875 0.59375 0.546875 1.59375q0 0.890625 -0.5 1.609375q-0.484375 0.703125 -1.46875 1.125q-0.96875 0.421875 -2.375 0.421875z" fill-rule="nonzero"/></g></svg>